# xmcd
#
# Track frame offsets:
#	150
#	29815
#	48878
#	77214
#	96029
#	122193
#	149070
#	178094
#	207208
#	230229
#
# Disc length: 3428 seconds
#
# Revision: 10
# Processed by: cddbd v1.5.2PL0 Copyright (c) Steve Scherf et al.
# Submitted via: Jack! The Knife 20 Magnifico
#
DISCID=960d620a
DTITLE=Grave Digger - Liberty Or Death
DYEAR=2007
DGENRE=Metal
TTITLE0=Liberty Or Death
TTITLE1=Ocean Of Blood
TTITLE2=Highland Tears
TTITLE3=The Terrible One
TTITLE4=Until The Last King Died
TTITLE5=March Of The Innocent
TTITLE6=Silent Revolution
TTITLE7=Shadowland
TTITLE8=Forecourt To Hell
TTITLE9=Massada
EXTD=Chris Boltendahl, Manni Schmidt and Jörg Umbreit
EXTT0=Boltendahl, Becker, Schmidt, Katzenburg
EXTT1=Boltendahl, Becker, Schmidt, Katzenburg
EXTT2=Boltendahl, Becker, Schmidt, Katzenburg
EXTT3=Boltendahl, Becker, Schmidt, Katzenburg
EXTT4=Boltendahl, Becker, Schmidt, Katzenburg
EXTT5=Boltendahl, Becker, Schmidt, Katzenburg
EXTT6=Boltendahl, Becker, Schmidt, Katzenburg
EXTT7=Boltendahl, Becker, Schmidt, Katzenburg
EXTT8=Boltendahl, Becker, Schmidt, Katzenburg
EXTT9=Boltendahl, Becker, Schmidt, Katzenburg
PLAYORDER=
